<svg width="100" height="100" viewBox="0 0 100 100" fill="none" xmlns="http://www.w3.org/2000/svg">
  <!-- Green rounded square background -->
  <rect width="100" height="100" rx="20" fill="#011936"/>

  <!-- Decorative semi-transparent oval behind the F -->
  <path d="M50 20C43.81 20 38.8 24.48 38.8 30V70C38.8 75.52 43.81 80 50 80C56.19 80 61.2 75.52 61.2 70V30C61.2 24.48 56.19 20 50 20Z" fill="white" fill-opacity="0.2"/>

  <!-- White F letterform with rounded top corners -->
  <path d="M33.2 30C33.2 27.24 35.71 25 38.8 25H66.8C69.89 25 72.4 27.24 72.4 30V40H44.4V47.5H66.8V55H44.4V75C44.4 77.76 41.89 80 38.8 80H33.2V30Z" fill="white"/>

  <!-- Green accent — bottom block (the "tail") -->
  <path d="M57.28 62.5H48.32C47.7 62.5 47.2 62.95 47.2 63.5V79C47.2 79.55 47.7 80 48.32 80H57.28C57.9 80 58.4 79.55 58.4 79V63.5C58.4 62.95 57.9 62.5 57.28 62.5Z" fill="#011936"/>

  <!-- Green accent — top block (the "eye") -->
  <path d="M62.88 32.5H56.72C56.1 32.5 55.6 32.95 55.6 33.5V36.5C55.6 37.05 56.1 37.5 56.72 37.5H62.88C63.5 37.5 64 37.05 64 36.5V33.5C64 32.95 63.5 32.5 62.88 32.5Z" fill="#011936"/>
</svg>
