<svg width="224" height="96" viewBox="0 0 224 96" fill="none" xmlns="http://www.w3.org/2000/svg">
<g clip-path="url(#clip0_1_8)">
<path d="M36 15C29.81 15 24.8 19.48 24.8 25V65C24.8 70.52 29.81 75 36 75C42.19 75 47.2 70.52 47.2 65V25C47.2 19.48 42.19 15 36 15Z" fill="white" fill-opacity="0.2"/>
<path d="M19.2 25C19.2 22.24 21.71 20 24.8 20H52.8C55.89 20 58.4 22.24 58.4 25V35H30.4V42.5H52.8V50H30.4V70C30.4 72.76 27.89 75 24.8 75H19.2V25Z" fill="white"/>
<path d="M43.28 57.5H34.32C33.7 57.5 33.2 57.95 33.2 58.5V74C33.2 74.55 33.7 75 34.32 75H43.28C43.9 75 44.4 74.55 44.4 74V58.5C44.4 57.95 43.9 57.5 43.28 57.5Z" fill="#011936"/>
<path d="M48.88 27.5H42.72C42.1 27.5 41.6 27.95 41.6 28.5V31.5C41.6 32.05 42.1 32.5 42.72 32.5H48.88C49.5 32.5 50 32.05 50 31.5V28.5C50 27.95 49.5 27.5 48.88 27.5Z" fill="#011936"/>
<path d="M74.168 74.77C70.0613 74.77 66.9557 73.615 64.851 71.305C62.7463 68.9437 61.694 65.5813 61.694 61.218V58.138H69.702V61.834C69.702 65.3247 71.165 67.07 74.091 67.07C75.5283 67.07 76.6063 66.6593 77.325 65.838C78.095 64.9653 78.48 63.5793 78.48 61.68C78.48 59.4213 77.9667 57.445 76.94 55.751C75.9133 54.0057 74.014 51.9267 71.242 49.514C67.7513 46.434 65.313 43.662 63.927 41.198C62.541 38.6827 61.848 35.8593 61.848 32.728C61.848 28.4673 62.926 25.182 65.082 22.872C67.238 20.5107 70.3693 19.33 74.476 19.33C78.5313 19.33 81.5857 20.5107 83.639 22.872C85.7437 25.182 86.796 28.5187 86.796 32.882V35.115H78.788V32.343C78.788 30.495 78.4287 29.1603 77.71 28.339C76.9913 27.4663 75.939 27.03 74.553 27.03C71.7297 27.03 70.318 28.7497 70.318 32.189C70.318 34.1397 70.8313 35.962 71.858 37.656C72.936 39.35 74.861 41.4033 77.633 43.816C81.175 46.896 83.6133 49.6937 84.948 52.209C86.2827 54.7243 86.95 57.676 86.95 61.064C86.95 65.4787 85.8463 68.8667 83.639 71.228C81.483 73.5893 78.326 74.77 74.168 74.77ZM103.741 74.77C99.6861 74.77 96.5804 73.615 94.4244 71.305C92.3197 68.995 91.2674 65.7353 91.2674 61.526V32.574C91.2674 28.3647 92.3197 25.105 94.4244 22.795C96.5804 20.485 99.6861 19.33 103.741 19.33C107.797 19.33 110.877 20.485 112.981 22.795C115.137 25.105 116.215 28.3647 116.215 32.574V38.272H108.207V32.035C108.207 28.6983 106.796 27.03 103.972 27.03C101.149 27.03 99.7374 28.6983 99.7374 32.035V62.142C99.7374 65.4273 101.149 67.07 103.972 67.07C106.796 67.07 108.207 65.4273 108.207 62.142V53.903H116.215V61.526C116.215 65.7353 115.137 68.995 112.981 71.305C110.877 73.615 107.797 74.77 103.741 74.77ZM127.828 20.1H139.301L148.079 74H139.609L138.069 63.297V63.451H128.444L126.904 74H119.05L127.828 20.1ZM137.068 56.136L133.295 29.494H133.141L129.445 56.136H137.068ZM152.188 20.1H164.662C168.872 20.1 172.029 21.2293 174.133 23.488C176.238 25.7467 177.29 29.0577 177.29 33.421V38.734C177.29 43.0973 176.238 46.4083 174.133 48.667C172.029 50.9257 168.872 52.055 164.662 52.055H160.658V74H152.188V20.1ZM164.662 44.355C166.048 44.355 167.075 43.97 167.742 43.2C168.461 42.43 168.82 41.121 168.82 39.273V32.882C168.82 31.034 168.461 29.725 167.742 28.955C167.075 28.185 166.048 27.8 164.662 27.8H160.658V44.355H164.662ZM181.89 20.1H204.99V27.8H190.36V42.045H201.987V49.745H190.36V66.3H204.99V74H181.89V20.1Z" fill="white"/>
</g>
<defs>
<clipPath id="clip0_1_8">
<rect width="224" height="96" fill="white"/>
</clipPath>
</defs>
</svg>
